<svg width="19" height="14" viewBox="0 0 19 14" fill="none" xmlns="http://www.w3.org/2000/svg">
<path d="M0.984553 7.60616C0.863498 7.41448 0.802971 7.31864 0.769088 7.17081C0.743637 7.05978 0.743637 6.88467 0.769088 6.77363C0.802971 6.62581 0.863498 6.52997 0.984553 6.33829C1.98491 4.7543 4.96258 0.75 9.50036 0.75C14.0381 0.75 17.0158 4.7543 18.0162 6.33829C18.1372 6.52997 18.1977 6.62581 18.2316 6.77363C18.2571 6.88467 18.2571 7.05978 18.2316 7.17081C18.1977 7.31864 18.1372 7.41448 18.0162 7.60616C17.0158 9.19014 14.0381 13.1944 9.50036 13.1944C4.96258 13.1944 1.98492 9.19014 0.984553 7.60616Z" stroke="white" stroke-width="1.5" stroke-linecap="round" stroke-linejoin="round"/>
<path d="M9.50036 9.63889C10.9731 9.63889 12.167 8.44498 12.167 6.97222C12.167 5.49946 10.9731 4.30556 9.50036 4.30556C8.0276 4.30556 6.83369 5.49946 6.83369 6.97222C6.83369 8.44498 8.0276 9.63889 9.50036 9.63889Z" stroke="white" stroke-width="1.5" stroke-linecap="round" stroke-linejoin="round"/>
</svg>
