<svg width="56" height="56" viewBox="0 0 56 56" fill="none" xmlns="http://www.w3.org/2000/svg">
<circle cx="28" cy="28" r="28" fill="#FA8100"/>
<g clip-path="url(#clip0_2048_225)">
<path d="M33.2687 25.4922C33.8733 24.5219 34.2015 23.4016 34.2062 22.2484C34.2155 20.5984 33.578 19.0328 32.4062 17.8469C31.239 16.6656 29.6874 16.0094 28.0374 16C28.028 16 28.014 16 28.0046 16C26.3499 16 24.7983 16.6422 23.6265 17.8047C22.4452 18.9766 21.7983 20.5422 21.7983 22.2062C21.7983 23.3734 22.1218 24.5078 22.7358 25.4922C23.5233 26.7531 24.7046 27.6672 26.0687 28.1125C26.1015 28.1219 26.1343 28.1313 26.1624 28.1406C26.4577 28.2297 26.7577 28.3 27.0624 28.3469C27.0718 28.3469 27.0812 28.3516 27.0905 28.3516C27.1515 28.3609 27.2124 28.3703 27.278 28.375C27.2968 28.375 27.3155 28.3797 27.3343 28.3797C27.3858 28.3844 27.4421 28.3891 27.4937 28.3937C27.5171 28.3937 27.5405 28.3984 27.5593 28.3984C27.6108 28.4031 27.6671 28.4031 27.7187 28.4078C27.7421 28.4078 27.7608 28.4078 27.7843 28.4125C27.8593 28.4172 27.9296 28.4172 28.0046 28.4172C28.0796 28.4172 28.1499 28.4172 28.2249 28.4125C28.2483 28.4125 28.2671 28.4125 28.2905 28.4078C28.3421 28.4031 28.3983 28.4031 28.4499 28.3984C28.4733 28.3984 28.4968 28.3937 28.5202 28.3937C28.5718 28.3891 28.628 28.3844 28.6796 28.3797C28.6983 28.3797 28.7171 28.375 28.7358 28.375C28.7968 28.3656 28.8577 28.3609 28.9187 28.3516C28.928 28.3516 28.9374 28.3469 28.9515 28.3469C29.2562 28.3 29.5562 28.2297 29.8468 28.1406C29.8749 28.1313 29.903 28.1219 29.9312 28.1172C31.2952 27.6719 32.4765 26.7578 33.2687 25.4922Z" fill="white"/>
<path d="M16.4124 35.5563C16.3281 35.861 16.4452 36.1845 16.6937 36.3673C20.0031 38.7438 23.9124 40.0001 27.9999 40.0001C32.0874 40.0001 35.9968 38.7438 39.3062 36.3626C39.5546 36.1845 39.6671 35.8563 39.5874 35.5517C39.3015 34.4876 38.8656 33.4704 38.2937 32.5235C36.6671 29.8188 33.3718 28.6048 30.2827 29.561C29.5468 29.7907 28.7781 29.9032 27.9999 29.9032C27.2218 29.9032 26.4531 29.786 25.7171 29.5563C25.0093 29.336 24.2921 29.2329 23.589 29.2329C21.2077 29.2329 18.9624 30.4329 17.7062 32.5188C17.1343 33.4751 16.7031 34.4923 16.4124 35.5563Z" fill="white"/>
</g>
<defs>
<clipPath id="clip0_2048_225">
<rect width="24" height="24" fill="white" transform="translate(16 16)"/>
</clipPath>
</defs>
</svg>
