<svg width="94" height="58" viewBox="0 0 94 58" fill="none" xmlns="http://www.w3.org/2000/svg">
<g clip-path="url(#clip0_8_737)">
<path d="M35.1489 14.5832V8.77607L32.0122 10.4476V15.4337L32.5223 15.2945L35.1489 14.5832Z" fill="#FA8100"/>
<path d="M40.2031 6.08169L35.6078 8.53096V14.4588L40.2031 13.2129V6.08169Z" fill="#FA8100"/>
<path d="M40.1818 24.089L35.6078 22.8838V30.1698L40.1818 32.5352V24.089Z" fill="#FA8100"/>
<path d="M40.2031 21.2546V16.0566L37.1083 16.6666V20.6575L40.2031 21.2546Z" fill="#FA8100"/>
<path d="M28.3459 12.4702V26.3844L31.5374 28.0431V10.7194L28.3459 12.4702Z" fill="#FA8100"/>
<path d="M35.1489 22.763V29.9155L31.9965 28.2799V21.9263C32.0126 21.9313 32.0291 21.9353 32.0457 21.9383V21.9457L35.1489 22.763Z" fill="#FA8100"/>
<path d="M58.1228 15.5783L58.1126 9.1078L55.8093 10.0772V18.0986L58.1228 18.8873V15.5783Z" fill="#FA8100"/>
<path d="M40.6613 13.0885V15.5092V15.9663V21.3431V21.8259V24.1729V31.4488V32.8006L46.6512 35.8811V2.41425L40.6613 5.67901V13.0885Z" fill="#FA8100"/>
<path d="M3.15699 42.9921L-0.00195312 52.0916H3.34932L3.58252 51.1627H6.07065L6.31965 52.0916H9.64119L6.61232 42.9921H3.15699ZM4.22453 48.6664L4.28306 48.4342C4.29328 48.3854 4.30536 48.332 4.32023 48.2739C4.33509 48.2159 4.36111 48.1099 4.40013 47.9551C4.50791 47.5681 4.59091 47.2584 4.64913 47.0262C4.70735 46.794 4.76093 46.5716 4.80986 46.3591C4.85942 46.5618 4.9133 46.7722 4.97153 46.9903C5.02975 47.2084 5.1078 47.5008 5.20566 47.8675C5.25397 48.0518 5.28835 48.1799 5.30786 48.2527C5.32737 48.3255 5.34224 48.3854 5.35153 48.437L5.41006 48.6692L4.22453 48.6664Z" fill="#FA8100"/>
<path d="M13.2424 42.9911H9.9209V52.0906H13.2424V42.9911Z" fill="#FA8100"/>
<path d="M18.8756 47.287C18.8366 47.4517 18.7709 47.8202 18.6786 48.3928C18.5863 48.9653 18.5244 49.3284 18.4928 49.482C18.3559 48.6588 18.2608 48.1169 18.2076 47.8565C18.1537 47.5948 18.1146 47.3957 18.0831 47.2612L17.0731 42.9948H13.5054L16.4181 52.0943H20.4272L23.3074 42.9948H19.8418L18.8756 47.287Z" fill="#FA8100"/>
<path d="M26.8948 48.8397H29.4554V46.184H26.8948V45.7924H29.9971V42.9911H23.5732V52.0906H30.129V49.2313H26.8948V48.8397Z" fill="#FA8100"/>
<path d="M34.0944 42.9911H30.7728V52.0906H36.8603V49.0138H34.0944V42.9911Z" fill="#FA8100"/>
<path d="M40.0498 42.9921L36.8909 52.0916H40.2412L40.4753 51.1627H42.9635L43.2115 52.0916H46.534L43.5042 42.9921H40.0498ZM41.1174 48.6664L41.1759 48.4342C41.1861 48.3854 41.1982 48.332 41.213 48.2739C41.2279 48.2159 41.2539 48.1099 41.293 47.9551C41.4007 47.5681 41.4837 47.2584 41.542 47.0262C41.6002 46.794 41.6538 46.5716 41.7027 46.3591C41.7519 46.5618 41.8049 46.7719 41.8634 46.9903C41.922 47.2087 42 47.5008 42.0985 47.8675C42.1468 48.0518 42.1812 48.1799 42.2007 48.2527C42.2202 48.3255 42.2341 48.3854 42.2444 48.437L42.3029 48.6692L41.1174 48.6664Z" fill="#FA8100"/>
<path d="M53.5265 45.9951H51.9461V42.9911H48.6245V52.0906H51.9461V48.9558H53.5265V52.0906H56.848V42.9911H53.5265V45.9951Z" fill="#FA8100"/>
<path d="M61.9543 42.8464C60.3649 42.8464 59.2116 43.215 58.4944 43.9522C57.7771 44.6894 57.4185 45.8873 57.4185 47.5459C57.4185 49.258 57.7672 50.4722 58.4646 51.1885C59.1621 51.9048 60.3253 52.2629 61.9543 52.2629C63.5449 52.2629 64.7011 51.8904 65.4227 51.1452C66.1443 50.4 66.5051 49.2003 66.5051 47.5459C66.5051 45.8431 66.1564 44.6338 65.4589 43.9181C64.7615 43.2024 63.5933 42.8452 61.9543 42.8464ZM62.8909 48.848C62.7255 49.0747 62.4133 49.1883 61.9543 49.1889C61.4953 49.1895 61.1856 49.0759 61.0252 48.848C60.8642 48.6201 60.7837 48.187 60.7837 47.5487C60.7837 46.8816 60.8667 46.4267 61.0327 46.184C61.1987 45.9413 61.5059 45.8206 61.9543 45.8219C62.4133 45.8219 62.7255 45.9426 62.8909 46.184C63.0562 46.4254 63.1392 46.8803 63.1399 47.5487C63.1399 48.1876 63.0569 48.6207 62.8909 48.848Z" fill="#FA8100"/>
<path d="M72.1392 46.3434L71.0856 42.9911H67.0765V52.0906H70.1788V48.1145L70.8078 50.4218H73.3247L74.0271 48.0997V52.0906H77.1294V42.9911H73.2662L72.1392 46.3434Z" fill="#FA8100"/>
<path d="M81.2119 48.8397H83.7725V46.184H81.2119V45.7924H84.3141V42.9911H77.8894V52.0906H84.4451V49.2313H81.2119V48.8397Z" fill="#FA8100"/>
<path d="M90.6199 42.9911L89.4056 45.9518L88.3232 42.9911H84.5919L87.6793 48.9272V52.0906H91.0009V48.9272L94 42.9911H90.6199Z" fill="#FA8100"/>
<path d="M47.387 35.9235L53.3769 32.843V5.7214L47.387 2.45663V35.9235Z" fill="white"/>
<path d="M40.2134 15.6318V13.7271L35.6181 14.9729L35.1591 15.0973L32.6533 15.7765L35.1591 16.0547L35.6181 16.1064L36.7637 16.2335L37.0247 16.263L40.2134 15.6346V15.6318Z" fill="white"/>
<path d="M36.7516 21.156L35.6181 21.2942L35.1591 21.3504L32.7704 21.6416L35.1591 22.2774L35.6181 22.3991L40.2134 23.6218V21.7854V21.7605L36.9551 21.1311L36.7516 21.156Z" fill="white"/>
<path d="M62.5806 28.02L63.9872 27.2828L65.4041 26.5392V12.6232L62.5806 11.0309V28.02Z" fill="white"/>
<path d="M32.0225 16.1635V18.0258V21.2749V21.297L32.0503 21.2933L35.1591 20.8989L35.6181 20.8409L36.6094 20.7155L36.6596 20.7091L36.6865 20.7054V16.6887L36.6596 16.686L35.7129 16.5745L35.6181 16.5634L35.1591 16.51L32.0225 16.1414V16.1635Z" fill="white"/>
<path d="M58.6161 30.0749L62.1105 28.255L62.1225 28.2495V10.7655L62.1105 10.7581L58.5929 8.76224L58.5808 8.75579L58.5929 15.6207L58.5985 19.4153L58.6161 30.0749Z" fill="white"/>
<path d="M58.1339 22.5225V19.4623L53.8359 18.0553L53.8322 18.0543V23.0911L53.8359 23.0902L58.1339 22.5225Z" fill="white"/>
<path d="M53.8322 27.9131L53.8359 27.9122L58.1339 26.3015V23.0911L53.8359 23.9831H53.8322V27.9131Z" fill="white"/>
<path d="M53.8322 32.5693L53.8359 32.5684L58.1339 30.332V26.8673L53.8359 28.7461L53.8322 28.748V32.5693Z" fill="white"/>
<path d="M66.2785 11.9984V9.44782H66.1261V11.9118L47.3081 1.24122L49.3465 0.135455L49.2731 0.0018425L47.1529 1.1546L45.1219 0.00276346L45.0467 0.134534L46.9978 1.2403L31.9863 9.39529L31.5477 9.63303L27.4328 12.0289V9.60631H27.2804V12.1155L25.084 13.3078L25.1583 13.4415L27.2785 12.2887V26.0739C27.3332 26.0909 27.3847 26.1168 27.4309 26.1504V12.2058L31.5459 9.80995L32.0049 9.56024L47.1492 1.32968L66.1243 12.0906V26.2812H66.2766V12.1735L68.3866 13.3714L68.4628 13.2397L66.2785 11.9984Z" fill="white"/>
<path d="M25.9275 57.9521H26.7024V56.9956H27.8675V56.4317H26.7024V55.9295H27.9474V55.3683H25.9275V57.9521Z" fill="white"/>
<path d="M29.302 56.9062H30.5322V56.345H29.302V55.9295H30.5842V55.3683H28.5402V57.9521H30.587L30.6752 57.3909H29.302V56.9062Z" fill="white"/>
<path d="M31.9927 56.9062H33.2228V56.345H31.9927V55.9295H33.2758V55.3683H31.2308V57.9521H33.2776L33.3659 57.3909H31.9927V56.9062Z" fill="white"/>
<path d="M34.7159 55.3683H33.9215V57.9521H35.9033L35.9888 57.3909H34.7159V55.3683Z" fill="white"/>
<path d="M37.3406 55.9295H38.1127V57.9521H38.9052V55.9295H39.6708V55.3683H37.3406V55.9295Z" fill="white"/>
<path d="M41.8123 56.3349H40.9882V55.3683H40.1938V57.9521H40.9882V56.8961H41.8123V57.9521H42.6077V55.3683H41.8123V56.3349Z" fill="white"/>
<path d="M44.1259 56.9062H45.356V56.345H44.1259V55.9295H45.408V55.3683H43.364V57.9521H45.4108L45.4991 57.3909H44.1259V56.9062Z" fill="white"/>
<path d="M48.3495 57.4674C47.9332 57.4674 47.8245 57.0629 47.8245 56.6528C47.8245 56.2022 47.9555 55.853 48.3402 55.853C48.4463 55.8429 48.5521 55.8747 48.6347 55.9414C48.7173 56.0082 48.77 56.1045 48.7815 56.2096H49.5675C49.5137 55.7618 49.1522 55.3204 48.3597 55.3204C47.4306 55.3204 47.0088 55.9479 47.0088 56.6795C47.0088 57.4296 47.4362 58.0009 48.3216 58.0009C49.0649 58.0009 49.4774 57.6425 49.5759 57.1025H48.7862C48.7518 57.249 48.6635 57.4674 48.3495 57.4674Z" fill="white"/>
<path d="M51.4639 55.3204C50.5571 55.3204 50.0758 55.9184 50.0758 56.662C50.0758 57.4057 50.5143 58.0009 51.423 58.0009C52.3521 58.0009 52.8092 57.3891 52.8092 56.6583C52.8092 55.8852 52.3159 55.3204 51.4639 55.3204ZM51.4481 57.4554C51.0569 57.4554 50.8906 57.1246 50.8906 56.651C50.8906 56.1773 51.0523 55.8659 51.4369 55.8659C51.8504 55.8659 51.9944 56.193 51.9944 56.6648C51.9953 57.1053 51.8597 57.4554 51.4481 57.4554Z" fill="white"/>
<path d="M54.9434 57.0315H54.9304C54.8691 56.6491 54.7139 55.8917 54.581 55.3729H53.441V57.953H54.1453V57.1311C54.1453 56.6878 54.1314 56.1838 54.1091 55.8797H54.1323C54.2382 56.4547 54.411 57.2232 54.5708 57.953H55.2045C55.4024 57.2011 55.5836 56.4335 55.6969 55.8797H55.7173C55.7062 56.1866 55.6969 56.709 55.6969 57.1108V57.953H56.4578V55.3729H55.3503C55.1933 55.9304 55.0131 56.616 54.9434 57.0315Z" fill="white"/>
<path d="M57.2103 57.9521H57.9861V56.9956H59.1512V56.4317H57.9861V55.9295H59.2311V55.3683H57.2103V57.9521Z" fill="white"/>
<path d="M61.1061 55.3204C60.1993 55.3204 59.718 55.9184 59.718 56.662C59.718 57.4057 60.1566 58.0009 61.0652 58.0009C61.9943 58.0009 62.4514 57.3891 62.4514 56.6583C62.4514 55.8852 61.9571 55.3204 61.1061 55.3204ZM61.0903 57.4554C60.6982 57.4554 60.5328 57.1246 60.5328 56.651C60.5328 56.1773 60.6945 55.8659 61.0792 55.8659C61.4926 55.8659 61.6366 56.193 61.6366 56.6648C61.6375 57.1053 61.5047 57.4554 61.0903 57.4554Z" fill="white"/>
<path d="M65.366 56.0843C65.366 55.6945 65.0575 55.3692 64.4211 55.3692H63.0841V57.9493H63.8525V56.9762H64.1312C64.4805 56.9762 64.5363 57.0988 64.5363 57.3218V57.3881C64.5363 57.6535 64.5484 57.8415 64.5939 57.9521H65.3483C65.3204 57.7943 65.3089 57.634 65.314 57.4738V57.3633C65.314 56.9265 65.1281 56.7542 64.9618 56.697C65.0855 56.6499 65.1912 56.5654 65.2637 56.4554C65.3363 56.3454 65.3721 56.2156 65.366 56.0843ZM64.2176 56.4528H63.8515V55.9H64.2232C64.4648 55.9 64.579 56.0013 64.579 56.1764C64.579 56.3515 64.4778 56.4482 64.2176 56.4482V56.4528Z" fill="white"/>
<path d="M65.8036 55.9295H66.5757V57.9521H67.3682V55.9295H68.1338V55.3683H65.8036V55.9295Z" fill="white"/>
</g>
<defs>
<clipPath id="clip0_8_737">
<rect width="94" height="58" fill="white"/>
</clipPath>
</defs>
</svg>
