<svg width="32" height="32" viewBox="0 0 32 32" fill="none" xmlns="http://www.w3.org/2000/svg">
<circle cx="16" cy="16" r="16" fill="#FA8100"/>
<path fill-rule="evenodd" clip-rule="evenodd" d="M8.44549 15.0617C12.6255 13.1565 15.4128 11.9005 16.8074 11.2937C20.7894 9.56106 21.6169 9.26007 22.1561 9.2501C22.2748 9.24794 22.54 9.2787 22.7118 9.42454C22.9666 9.64087 22.9681 10.1104 22.9398 10.4212C22.724 12.7931 21.7903 18.5489 21.3153 21.2055C21.1142 22.3295 20.7185 22.7065 20.3354 22.7433C19.5027 22.8235 18.8704 22.1676 18.0639 21.6146C16.8019 20.7492 16.089 20.2105 14.864 19.366C13.4483 18.3901 14.3661 17.8537 15.1728 16.9771C15.384 16.7477 19.0527 13.2567 19.1237 12.94C19.1326 12.9004 19.1409 12.7528 19.057 12.6749C18.9732 12.5969 18.8495 12.6235 18.7602 12.6447C18.6336 12.6748 16.6176 14.0688 12.7121 16.8267C12.1398 17.2378 11.6215 17.4381 11.1571 17.4276C10.6451 17.416 9.66035 17.1248 8.92824 16.8758C8.03029 16.5705 7.3166 16.409 7.37878 15.8904C7.41115 15.6202 7.7667 15.344 8.44549 15.0617Z" fill="white"/>
</svg>
