<svg width="32" height="32" viewBox="0 0 32 32" fill="none" xmlns="http://www.w3.org/2000/svg">
<circle cx="16" cy="16" r="16" fill="#FA8100"/>
<path d="M16.002 7.66699H15.9979C11.4031 7.66699 7.66663 11.4045 7.66663 16.0003C7.66663 17.8232 8.25413 19.5128 9.25308 20.8847L8.21454 23.9805L11.4177 22.9566C12.7354 23.8295 14.3073 24.3337 16.002 24.3337C20.5968 24.3337 24.3333 20.5951 24.3333 16.0003C24.3333 11.4055 20.5968 7.66699 16.002 7.66699Z" fill="white"/>
<path d="M20.8362 19.0493C20.6495 19.5642 19.9083 19.9913 19.3172 20.116C18.9128 20.2001 18.3845 20.2671 16.6062 19.5472C14.3315 18.627 12.8667 16.3699 12.7525 16.2234C12.6432 16.077 11.8334 15.0283 11.8334 13.9437C11.8334 12.8591 12.3974 12.3309 12.6248 12.1042C12.8115 11.918 13.1202 11.833 13.4162 11.833C13.512 11.833 13.5981 11.8377 13.6755 11.8415C13.9029 11.851 14.0171 11.8642 14.167 12.2147C14.3538 12.654 14.8085 13.7386 14.8627 13.8501C14.9178 13.9616 14.973 14.1128 14.8956 14.2592C14.823 14.4104 14.7592 14.4775 14.645 14.606C14.5308 14.7345 14.4225 14.8327 14.3083 14.9707C14.2038 15.0906 14.0858 15.2191 14.2174 15.4412C14.3489 15.6585 14.8037 16.3831 15.4732 16.9651C16.3372 17.7162 17.0377 17.9562 17.2883 18.0582C17.475 18.1338 17.6975 18.1159 17.834 17.9741C18.0072 17.7918 18.221 17.4895 18.4387 17.1919C18.5935 16.9783 18.7889 16.9519 18.994 17.0275C19.203 17.0983 20.3089 17.6321 20.5363 17.7427C20.7636 17.8542 20.9136 17.9071 20.9687 18.0006C21.0229 18.0941 21.0229 18.5335 20.8362 19.0493Z" fill="#FA8100"/>
</svg>
