<svg width="32" height="32" viewBox="0 0 32 32" fill="none" xmlns="http://www.w3.org/2000/svg">
<circle cx="16" cy="16" r="16" fill="#FA8100"/>
<g clip-path="url(#clip0_8_801)">
<path d="M16.0029 8.22168C16.0029 8.22168 22.489 8.22155 24.1064 8.68457C25.0006 8.94265 25.7038 9.69587 25.9414 10.6504C26.3709 12.3717 26.374 15.9537 26.374 15.999C26.374 15.999 26.3736 19.6163 25.9414 21.3486C25.7005 22.3066 24.9973 23.0599 24.1064 23.3145C22.489 23.7775 16.0029 23.7773 16.0029 23.7773C15.9564 23.7773 9.51362 23.7759 7.89941 23.3145C7.00536 23.0564 6.30305 22.303 6.06543 21.3486C5.63319 19.6163 5.63281 15.999 5.63281 15.999C5.63283 15.9537 5.63593 12.3717 6.06543 10.6504C6.30632 9.69242 7.00864 8.93913 7.89941 8.68457C9.51362 8.22311 15.9564 8.22169 16.0029 8.22168Z" fill="white"/>
<path d="M14 19.4815L19.1852 16.2407L14 13V19.4815Z" fill="#FA8100"/>
</g>
<defs>
<clipPath id="clip0_8_801">
<rect width="20" height="20" fill="white" transform="translate(6 6)"/>
</clipPath>
</defs>
</svg>
